<svg width="24" height="24" viewBox="0 0 24 24" fill="none" xmlns="http://www.w3.org/2000/svg">
<g clip-path="url(#clip0_1304_5536)">
<path d="M19.5327 6.02686H11.9992L13.3652 10.4964L16.053 12.2003L18.3176 10.2722L19.5327 6.02686Z" fill="#6DE349"/>
<path d="M0 12.2003L11.9992 24L10.8026 16.9766L7.94545 12.2003L5.06002 10.7615L0 12.2003Z" fill="#1BC667"/>
<path d="M16.053 12.2003L13.7112 16.5003L11.9992 24L24 12.2003L19.9507 10.7615L16.053 12.2003Z" fill="#1BC667"/>
<path d="M4.46578 6.02686L0 12.2003H7.94545L7.34456 8.74767L4.46578 6.02686Z" fill="#6DE349"/>
<path d="M19.5327 6.02686L16.053 12.2003H24L19.5327 6.02686Z" fill="#1BAC68"/>
<path d="M11.9993 6.02686H4.46579L7.94546 12.2003L10.5356 9.80071L11.9993 6.02686Z" fill="#ACF745"/>
<path d="M7.94547 12.2003L11.9993 24L12.7417 16.4638L11.9993 10.7615L7.94547 12.2003Z" fill="#ACF745"/>
<path d="M11.9992 10.7615V24L16.053 12.2003L13.562 11.2762L11.9992 10.7615Z" fill="#6DE349"/>
<path d="M11.9993 12.2003L12.9281 9.62292L11.9993 6.02686L7.94547 12.2003H11.9993Z" fill="#6DE349"/>
<path d="M16.053 12.2003L11.9992 6.02686V12.2003H16.053Z" fill="#1BC667"/>
<path d="M6.81418 2.02618L7.80773 1.03263L9.17648 2.40137L8.18292 3.39492L6.81418 2.02618Z" fill="#FFF79F"/>
<path d="M14.8205 2.40222L16.1892 1.03348L17.1828 2.02704L15.814 3.39578L14.8205 2.40222Z" fill="#FDE800"/>
<path d="M11.2973 0V1.79011H11.9992L12.4473 0.895078L11.9992 0H11.2973Z" fill="#FFF79F"/>
<path d="M11.9992 0H12.7026V1.79011H11.9992V0Z" fill="#FDE800"/>
</g>
<defs>
<clipPath id="clip0_1304_5536">
<rect width="24" height="24" fill="white"/>
</clipPath>
</defs>
</svg>
